<?xml version="1.0" encoding="UTF-8"?>
<svg width="200px" height="47px" viewBox="0 0 200 47" version="1.1" xmlns="http://www.w3.org/2000/svg" xmlns:xlink="http://www.w3.org/1999/xlink">
    <!-- Generator: Sketch 52.2 (67145) - http://www.bohemiancoding.com/sketch -->
    <title>Group 31</title>
    <desc>Created with Sketch.</desc>
    <g id="Page-1" stroke="none" stroke-width="1" fill="none" fill-rule="evenodd">
        <g id="HOME" transform="translate(-60.000000, -39.000000)">
            <g id="Group-2">
                <g id="Group-31" transform="translate(60.000000, 38.000000)">
                    <polygon id="Fill-1" fill="#EB5F13" points="0.268064516 46.2689067 43.3992473 46.2689067 0.268064516 3.26517333"></polygon>
                    <polygon id="Stroke-2" stroke="#FFFFFE" stroke-width="0.5" points="0.268494624 3.26517333 0.268494624 46.2689067 43.3986022 46.2689067"></polygon>
                    <polygon id="Fill-4" fill="#EB5F13" points="2.82774194 1.33994667 8.61483871 7.11061333 13.8664516 1.33994667"></polygon>
                    <polygon id="Stroke-5" stroke="#FFFFFE" stroke-width="0.5" points="8.61451613 7.11050667 13.8672043 1.33984 2.82741935 1.33984"></polygon>
                    <polygon id="Fill-7" fill="#EB5F13" points="39.9044086 39.1204267 45.7205376 44.3310933 45.7205376 33.37856"></polygon>
                    <polygon id="Stroke-8" stroke="#FFFFFE" stroke-width="0.5" points="39.9044086 39.1204267 45.7205376 44.3310933 45.7205376 33.37856"></polygon>
                    <polygon id="Fill-9" fill="#EB5F13" points="10.5967742 9.04778667 17.5817204 16.0056533 31.7956989 1.34645333 18.7784946 1.34538667"></polygon>
                    <polygon id="Stroke-10" stroke="#FFFFFE" stroke-width="0.5" points="17.582043 16.0062933 31.7960215 1.34602667 18.7788172 1.34602667 10.5970968 9.04736"></polygon>
                    <polygon id="Fill-12" fill="#EB5F13" points="38.5697849 36.8266667 45.7160215 29.1786667 45.7203226 16.2592 31.5848387 29.8688"></polygon>
                    <polygon id="Stroke-13" stroke="#FFFFFE" stroke-width="0.5" points="38.5697849 36.8266667 45.7160215 29.1786667 45.7203226 16.2592 31.5848387 29.8688"></polygon>
                    <polygon id="Fill-14" fill="#EB5F13" points="20.3796774 18.7514667 29.0807527 27.4117333 45.7205376 10.9349333 45.7205376 1.34026667 38.3549462 1.3328"></polygon>
                    <polygon id="Stroke-15" stroke="#FFFFFE" stroke-width="0.5" points="29.0803226 27.4120533 45.7211828 10.9352533 45.7211828 1.34058667 38.3555914 1.33312 20.3792473 18.7517867"></polygon>
                    <polygon id="Fill-17" fill="#EB5F13" points="54.2273118 2.73077333 54.2273118 8.09397333 59.5606452 8.09397333 59.5606452 41.0699733 54.2273118 41.0699733 54.2273118 46.2689067 75.8531183 46.2689067 75.8531183 41.0699733 70.4101075 41.0699733 70.4101075 7.94890667 75.8531183 7.94890667 75.8531183 2.73077333"></polygon>
                    <polygon id="Stroke-18" stroke="#FFFFFE" stroke-width="0.5" points="54.2273118 2.73077333 54.2273118 8.09397333 59.5606452 8.09397333 59.5606452 41.0699733 54.2273118 41.0699733 54.2273118 46.2689067 75.8531183 46.2689067 75.8531183 41.0699733 70.4101075 41.0699733 70.4101075 7.94890667 75.8531183 7.94890667 75.8531183 2.73077333"></polygon>
                    <polygon id="Fill-19" fill="#EB5F13" points="190.429355 2.72426667 190.429355 28.128 175.737957 2.72426667 165.484194 2.72426667 165.484194 46.2688 175.126129 46.2688 175.126129 18.1088 190.735806 46.2688 199.407849 46.2688 199.407849 2.72426667"></polygon>
                    <g id="Group-30" transform="translate(83.870968, 0.669973)">
                        <polygon id="Stroke-20" stroke="#FFFFFE" stroke-width="0.5" points="81.6130108 45.59936 81.6130108 2.05376 91.8667742 2.05376 106.558172 27.4574933 106.558172 2.05376 115.537742 2.05376 115.537742 45.59936 106.864624 45.59936 91.2560215 17.4382933 91.2560215 45.59936"></polygon>
                        <path d="M11.0044086,20.2056533 L16.6624731,20.2056533 C19.0087097,20.2056533 22.5764516,19.4184533 22.6065591,14.81152 C22.6409677,9.41312 20.7829032,9.00032 17.9065591,9.00032 L11.0044086,9.00032 L11.0044086,20.2056533 Z M0.493655914,45.5997867 L0.493655914,2.05418667 L17.6947312,2.05418667 C21.1527957,2.05418667 28.9248387,2.23125333 31.6958065,7.30325333 C32.7775269,9.28085333 33.3904301,11.5752533 33.3904301,13.9709867 C33.3904301,17.0600533 32.7678495,19.6285867 30.9872043,21.7480533 C29.2054839,23.86752 28.042043,24.7784533 24.8807527,25.78752 L24.7850538,26.7165867 C26.8603226,30.6397867 34.6839785,45.5997867 34.6839785,45.5997867 L23.925914,45.5997867 L18.7915054,36.53952 C17.2925806,33.9261867 13.8603226,28.4637867 13.8603226,28.4637867 L11.0044086,28.3965867 L11.0044086,45.5997867 L0.493655914,45.5997867 Z" id="Fill-22" fill="#EB5F13"></path>
                        <path d="M11.0044086,20.2056533 L16.6624731,20.2056533 C19.0087097,20.2056533 22.5764516,19.4184533 22.6065591,14.81152 C22.6409677,9.41312 20.7829032,9.00032 17.9065591,9.00032 L11.0044086,9.00032 L11.0044086,20.2056533 Z M0.493655914,45.5997867 L0.493655914,2.05418667 L17.6947312,2.05418667 C21.1527957,2.05418667 28.9248387,2.23125333 31.6958065,7.30325333 C32.7775269,9.28085333 33.3904301,11.5752533 33.3904301,13.9709867 C33.3904301,17.0600533 32.7678495,19.6285867 30.9872043,21.7480533 C29.2054839,23.86752 28.042043,24.7784533 24.8807527,25.78752 L24.7850538,26.7165867 C26.8603226,30.6397867 34.6839785,45.5997867 34.6839785,45.5997867 L23.925914,45.5997867 L18.7915054,36.53952 C17.2925806,33.9261867 13.8603226,28.4637867 13.8603226,28.4637867 L11.0044086,28.3965867 L11.0044086,45.5997867 L0.493655914,45.5997867 Z" id="Stroke-24" stroke="#FFFFFE" stroke-width="0.5"></path>
                        <path d="M52.4831183,32.12544 C52.4831183,35.16544 54.6444086,38.4529067 58.0863441,38.4529067 C61.5282796,38.4529067 63.6895699,35.16544 63.6895699,32.12544 L63.6895699,15.5355733 C63.6895699,12.4955733 61.5282796,9.20810667 58.0863441,9.20810667 C54.6444086,9.20810667 52.4831183,12.4955733 52.4831183,15.5355733 L52.4831183,32.12544 Z M41.9712903,14.9297067 C41.9712903,8.12224 47.4637634,0.993706667 58.0863441,0.993706667 C68.7013978,0.993706667 74.1497849,8.15530667 74.1497849,14.96384 L74.1841935,32.72384 C74.1841935,39.5313067 68.7013978,46.6673067 58.0863441,46.6673067 C47.4637634,46.6673067 41.9368817,39.5985067 41.9368817,32.7899733 L41.9712903,14.9297067 Z" id="Fill-26" fill="#EB5F13"></path>
                        <path d="M52.4831183,32.12544 C52.4831183,35.16544 54.6444086,38.4529067 58.0863441,38.4529067 C61.5282796,38.4529067 63.6895699,35.16544 63.6895699,32.12544 L63.6895699,15.5355733 C63.6895699,12.4955733 61.5282796,9.20810667 58.0863441,9.20810667 C54.6444086,9.20810667 52.4831183,12.4955733 52.4831183,15.5355733 L52.4831183,32.12544 Z M41.9712903,14.9297067 C41.9712903,8.12224 47.4637634,0.993706667 58.0863441,0.993706667 C68.7013978,0.993706667 74.1497849,8.15530667 74.1497849,14.96384 L74.1841935,32.72384 C74.1841935,39.5313067 68.7013978,46.6673067 58.0863441,46.6673067 C47.4637634,46.6673067 41.9368817,39.5985067 41.9368817,32.7899733 L41.9712903,14.9297067 Z" id="Stroke-28" stroke="#FFFFFE" stroke-width="0.5"></path>
                    </g>
                </g>
            </g>
        </g>
    </g>
</svg>